<svg xmlns="http://www.w3.org/2000/svg" viewBox="0 0 1536 864" role="img" aria-label="Lesson 4 Model Audio">
  <defs>
    <linearGradient id="bg" x1="0" x2="1" y1="0" y2="1">
      <stop offset="0" stop-color="#081323"/>
      <stop offset=".46" stop-color="#123f5b"/>
      <stop offset=".74" stop-color="#f6efe0"/>
      <stop offset="1" stop-color="#fffaf1"/>
    </linearGradient>
    <radialGradient id="pulse" cx="39%" cy="36%" r="56%">
      <stop offset="0" stop-color="#ffffff" stop-opacity=".88"/>
      <stop offset=".18" stop-color="#f7c85b" stop-opacity=".64"/>
      <stop offset=".54" stop-color="#19a1a3" stop-opacity=".16"/>
      <stop offset="1" stop-color="#ffffff" stop-opacity="0"/>
    </radialGradient>
    <linearGradient id="gold" x1="0" x2="1">
      <stop offset="0" stop-color="#ffe8a2"/>
      <stop offset=".5" stop-color="#fff6d5"/>
      <stop offset="1" stop-color="#c88b2d"/>
    </linearGradient>
    <filter id="shadow" x="-20%" y="-30%" width="140%" height="170%">
      <feDropShadow dx="0" dy="18" stdDeviation="12" flood-color="#03111d" flood-opacity=".48"/>
      <feDropShadow dx="0" dy="0" stdDeviation="8" flood-color="#f5c55c" flood-opacity=".42"/>
    </filter>
  </defs>
  <rect width="1536" height="864" fill="url(#bg)"/>
  <rect width="1536" height="864" fill="url(#pulse)"/>
  <g opacity=".32">
    <path d="M0 640 C224 540 444 728 710 590 C930 476 1118 558 1536 382" fill="none" stroke="#ffe39a" stroke-width="5"/>
    <path d="M0 700 C250 604 470 748 718 644 C960 542 1172 628 1536 494" fill="none" stroke="#095c74" stroke-width="8"/>
    <path d="M-40 236 C260 180 484 224 714 166 C1004 92 1206 124 1570 48" fill="none" stroke="#ffffff" stroke-width="2"/>
  </g>
  <g opacity=".86" filter="url(#shadow)">
    <circle cx="378" cy="386" r="156" fill="#fff8e8" opacity=".96"/>
    <circle cx="378" cy="386" r="108" fill="none" stroke="#0e3e59" stroke-width="20"/>
    <path d="M298 386 h42 l28 -76 54 154 36 -102 h54" fill="none" stroke="#d0442d" stroke-linecap="round" stroke-linejoin="round" stroke-width="18"/>
  </g>
  <g filter="url(#shadow)">
    <text x="742" y="350" fill="#061423" stroke="url(#gold)" stroke-width="6" paint-order="stroke" font-family="Georgia, serif" font-size="112" font-weight="900">MODEL</text>
    <text x="742" y="478" fill="#061423" stroke="url(#gold)" stroke-width="6" paint-order="stroke" font-family="Georgia, serif" font-size="112" font-weight="900">AUDIO</text>
    <text x="750" y="552" fill="#fff7dc" font-family="Arial, sans-serif" font-size="36" font-weight="700">normal / recommended</text>
  </g>
  <g opacity=".75">
    <rect x="700" y="618" width="548" height="78" rx="12" fill="#fff8e8"/>
    <rect x="734" y="648" width="260" height="18" rx="9" fill="#0e3e59"/>
    <circle cx="1036" cy="657" r="20" fill="#d0442d"/>
    <rect x="1084" y="648" width="120" height="18" rx="9" fill="#d5a64c"/>
  </g>
  <g fill="#fff5ce" opacity=".86">
    <circle cx="134" cy="160" r="7"/>
    <circle cx="1278" cy="178" r="5"/>
    <circle cx="1362" cy="646" r="8"/>
    <circle cx="548" cy="710" r="5"/>
    <circle cx="1170" cy="82" r="4"/>
  </g>
</svg>
